<svg xmlns="http://www.w3.org/2000/svg" viewBox="0 0 64 64" width="64" height="64">
  <!-- L'icône du site : le L du mot-logo, dans la Playfair Display 700 du site
       — l'outline même de `app/fonts/playfair-display-700.woff2`, tracé en
       chemin pour ne dépendre d'aucune police au rendu.

       Encre et papier inversés : un carré d'encre au rayon des pastilles
       (0,219 du côté, comme 12 px sur 55), sur lequel la lettre se pose en
       crème. Un fond crème se perdrait dans la barre d'onglets claire des
       navigateurs ; l'encre y tient, comme la pastille de l'appel à l'action. -->
  <rect width="64" height="64" rx="14" fill="#171412"/>
  <path transform="translate(15.281 51.000) scale(0.053672 -0.053672)" fill="#fbf9ef" d="M349 708V688Q315 687 297.5 680.5Q280 674 274.0 656.5Q268 639 268 602V94Q268 63 272.5 48.0Q277 33 290.5 28.0Q304 23 331 23H380Q414 23 444.0 39.0Q474 55 498.0 84.5Q522 114 538.0 155.0Q554 196 562 246H585Q582 212 582 158Q582 135 583.0 91.0Q584 47 589 0Q538 2 474.0 2.5Q410 3 360 3Q335 3 296.0 3.0Q257 3 212.0 2.5Q167 2 121.0 1.5Q75 1 34 0V20Q66 22 82.0 28.0Q98 34 103.5 52.0Q109 70 109 106V602Q109 639 103.5 656.5Q98 674 81.5 680.5Q65 687 34 688V708Q59 707 101.5 706.0Q144 705 192 705Q236 705 278.5 706.0Q321 707 349 708Z"/>
</svg>
